# xmcd
#
# Track frame offsets: 
#        150
#        15720
#        37152
#        50646
#        66432
#        83342
#        98908
#        117303
#        133200
#        152226
#        170025
#        183627
#        205229
#        223260
#        238795
#
# Disc length: 3431 seconds
#
# Revision: 0
# Processed by: cddbd v1.5.2PL0 Copyright (c) Steve Scherf et al.
# Submitted via: ExactAudioCopyFreeDBPlugin 1.0
#
DISCID=e50d650f
DTITLE=Various Artist - Home Grown Roots: Volume 4
DYEAR=2009
DGENRE=Blues/Roots
TTITLE0=Paul Kelly - Throwing Good Love After Bad
TTITLE1=Jill Barber - Oh My My
TTITLE2=Lucie Thorne - As You Find It
TTITLE3=Paul Greene - Some Simplicity
TTITLE4=Kym Campbell - Rolls That Way
TTITLE5=Josh Owen - Nasty Weather
TTITLE6=8 Ball Aitken - Yellow Moon
TTITLE7=The Sweet Lips - Desert Crow
TTITLE8=Genevieve Maynard and The Tall Boys - Arabian Sea
TTITLE9=Luke Escombe - Too Old To Take New Drugs
TTITLE10=Dear Orphans - Captain Starlight
TTITLE11=The Wildes - Ballad Of A Young Married Man
TTITLE12=Christina Crofts - Midnight Train
TTITLE13=Iron Bar Hotel - Lost At Sea
TTITLE14=Jessica Belle - On My Own
EXTD=
EXTT0=
EXTT1=
EXTT2=
EXTT3=
EXTT4=
EXTT5=
EXTT6=
EXTT7=
EXTT8=
EXTT9=
EXTT10=
EXTT11=
EXTT12=
EXTT13=
EXTT14=
PLAYORDER=
